Coordinates
version=1
nRows=38
nColumns=12
inDegrees=yes

Units are S.I. units (second, meters, Newtons, ...)
Angles are in degrees

endheader
time	SC_y	SC_z	SC_x	AC_y	AC_z	AC_x	GH_y	GH_z	GH_yy	EL_x	PS_y
       0.0              -22.03          7.137          49.97          47.84         -6.542          10.05          60.14           10.0         -55.77          8.424          8.853
   0.03044              -22.04          7.141          49.96          47.84         -6.543          10.05          60.15          10.01         -55.77          8.437          8.868
   0.06089              -22.04          7.146          49.96          47.84         -6.544          10.05          60.17          10.01         -55.76           8.45          8.884
   0.09133              -22.04          7.151          49.95          47.84         -6.546          10.06          60.18          10.02         -55.75          8.465          8.901
    0.1218              -22.04          7.156          49.95          47.84         -6.547          10.06           60.2          10.03         -55.74           8.48          8.918
    0.1522              -22.05          7.161          49.94          47.84         -6.549          10.06          60.22          10.03         -55.73          8.496          8.938
    0.1827              -22.05          7.167          49.93          47.84          -6.55          10.06          60.24          10.04         -55.71          8.513          8.958
    0.2131              -22.05          7.174          49.93          47.84         -6.552          10.06          60.26          10.05          -55.7          8.531           8.98
    0.2436              -22.06           7.18          49.92          47.84         -6.554          10.06          60.29          10.06         -55.69          8.551          9.003
     0.274              -22.06          7.188          49.91          47.84         -6.556          10.07          60.31          10.06         -55.67          8.572          9.028
    0.3044              -22.07          7.195           49.9          47.84         -6.559          10.07          60.34          10.07         -55.66          8.595          9.055
    0.3349              -22.07          7.204          49.89          47.85         -6.561          10.07          60.37          10.08         -55.64           8.62          9.084
    0.3653              -22.08          7.213          49.88          47.85         -6.564          10.07           60.4          10.09         -55.62          8.646          9.116
    0.3958              -22.08          7.222          49.87          47.85         -6.566          10.08          60.43          10.11          -55.6          8.674           9.15
    0.4262              -22.09          7.233          49.86          47.85          -6.57          10.08          60.47          10.12         -55.58          8.705          9.186
    0.4567              -22.09          7.244          49.85          47.85         -6.573          10.08          60.51          10.13         -55.56          8.739          9.226
    0.4871               -22.1          7.257          49.84          47.85         -6.576          10.08          60.55          10.15         -55.53          8.775          9.269
    0.5176              -22.11           7.27          49.82          47.85          -6.58          10.09           60.6          10.16          -55.5          8.814          9.316
     0.548              -22.12          7.285          49.81          47.86         -6.585          10.09          60.65          10.18         -55.47          8.858          9.367
    0.5784              -22.12          7.301          49.79          47.86         -6.589           10.1          60.71           10.2         -55.44          8.905          9.423
    0.6089              -22.13          7.319          49.77          47.86         -6.595           10.1          60.77          10.22          -55.4          8.957          9.485
    0.6393              -22.15          7.338          49.75          47.86           -6.6          10.11          60.84          10.24         -55.36          9.014          9.553
    0.6698              -22.16           7.36          49.72          47.86         -6.607          10.11          60.91          10.27         -55.32          9.077          9.628
    0.7002              -22.17          7.384           49.7          47.87         -6.614          10.12           61.0           10.3         -55.27          9.147          9.711
    0.7307              -22.19          7.411          49.67          47.87         -6.621          10.13          61.09          10.33         -55.22          9.225          9.803
    0.7611               -22.2           7.44          49.64          47.87          -6.63          10.14          61.19          10.37         -55.16          9.312          9.906
    0.7915              -22.22          7.473           49.6          47.88          -6.64          10.14          61.31           10.4         -55.09          9.409          10.02
     0.822              -22.24          7.511          49.56          47.88          -6.65          10.15          61.44          10.45         -55.01          9.518          10.15
    0.8524              -22.26          7.553          49.51          47.89         -6.663          10.17          61.59           10.5         -54.93          9.642           10.3
    0.8829              -22.29          7.601          49.46          47.89         -6.677          10.18          61.75          10.56         -54.83          9.782          10.46
    0.9133              -22.32          7.656           49.4           47.9         -6.693          10.19          61.95          10.62         -54.72          9.942          10.65
    0.9438              -22.36          7.718          49.33           47.9         -6.711          10.21          62.16           10.7         -54.59          10.13          10.87
    0.9742               -22.4          7.791          49.25          47.91         -6.732          10.23          62.42          10.78         -54.44          10.34          11.12
     1.005              -22.44          7.875          49.16          47.92         -6.757          10.25          62.71          10.88         -54.27          10.58          11.42
     1.035               -22.5          7.974          49.05          47.93         -6.785          10.28          63.06           11.0         -54.07          10.87          11.76
     1.066              -22.56           8.09          48.93          47.95         -6.819          10.31          63.46          11.14         -53.83          11.21          12.16
     1.096              -22.64          8.228          48.78          47.96          -6.86          10.35          63.94           11.3         -53.55          11.62          12.64
     1.126              -22.73          8.393          48.59          47.98         -6.908           10.4          64.52           11.5         -53.22           12.1          13.22
